<?xml version="1.0" standalone="no"?>
<!DOCTYPE svg PUBLIC "-//W3C//DTD SVG 20010904//EN"
 "http://www.w3.org/TR/2001/REC-SVG-20010904/DTD/svg10.dtd">
<svg version="1.0" xmlns="http://www.w3.org/2000/svg"
 width="1080.000000pt" height="1080.000000pt" viewBox="0 0 1080.000000 1080.000000"
 preserveAspectRatio="xMidYMid meet">

<g transform="translate(0.000000,1080.000000) scale(0.100000,-0.100000)"
fill="#162C4C" stroke="none">
<path d="M4990 10010 c-1211 -72 -2314 -588 -3133 -1468 -660 -709 -1076
-1597 -1201 -2567 -49 -374 -45 -846 10 -1230 124 -871 497 -1692 1073 -2360
683 -793 1621 -1335 2641 -1525 311 -58 489 -73 850 -74 517 -1 850 45 1310
180 1458 429 2616 1552 3088 2994 276 843 303 1764 77 2617 -185 696 -529
1339 -1006 1878 -557 630 -1252 1082 -2077 1349 -493 160 -1101 237 -1632 206z
m-742 -2438 c24 -16 32 -72 21 -151 -11 -81 -63 -289 -103 -415 l-24 -77 25
-12 c19 -8 26 -8 33 3 7 11 11 12 25 0 12 -10 21 -10 42 -1 21 10 29 9 43 -4
15 -14 18 -14 30 0 19 23 30 18 30 -12 l0 -28 18 22 c9 11 32 24 51 28 l33 7
-7 -40 c-4 -25 -2 -42 4 -47 6 -3 11 -2 11 4 0 5 10 26 21 46 15 24 24 32 29
24 4 -6 13 -8 19 -4 22 13 151 13 151 0 0 -7 9 -11 23 -8 29 4 65 -41 48 -61
-9 -11 37 -13 261 -14 l273 -1 -39 20 c-34 18 -40 19 -53 6 -12 -12 -22 -13
-47 -5 -17 6 -36 15 -43 20 -7 6 -19 6 -30 0 -10 -6 -49 -12 -86 -13 -73 -4
-76 -2 -92 51 l-7 25 26 -25 c22 -20 30 -22 46 -13 12 8 20 9 22 2 2 -6 15 -4
33 5 38 20 66 20 91 1 25 -19 34 -19 34 0 0 8 5 15 10 15 6 0 10 -7 10 -15 0
-20 14 -19 31 1 12 15 15 14 30 -5 l18 -21 7 22 c6 21 8 20 25 -13 10 -18 21
-42 25 -52 6 -16 23 -17 195 -14 105 2 189 -1 189 -6 0 -5 19 -5 43 -1 23 4
137 9 252 10 116 1 246 5 290 8 44 3 101 6 127 6 26 -1 61 6 77 15 28 14 30
14 36 -6 5 -16 10 -18 21 -8 8 6 27 9 44 5 17 -3 30 -2 30 3 0 16 74 19 98 4
19 -11 54 -14 156 -12 72 2 137 -1 145 -5 7 -5 17 -4 23 2 6 6 19 6 38 -1 25
-10 33 -8 54 12 21 20 33 22 88 20 34 -2 68 -1 73 3 6 3 72 6 148 6 76 1 152
4 171 7 48 9 110 -11 147 -47 28 -29 34 -31 60 -21 17 7 31 7 35 2 7 -11 81
-11 162 1 41 5 73 5 90 -1 16 -6 28 -6 31 0 12 18 63 -1 80 -31 16 -28 80 -56
101 -43 8 5 40 9 140 17 14 1 44 1 68 0 l42 -2 -17 -27 -17 -28 26 23 c22 20
26 21 38 7 7 -8 21 -15 31 -15 10 0 30 -16 45 -35 19 -25 34 -35 55 -35 15 0
30 -4 33 -9 3 -5 23 -7 44 -4 29 3 43 -1 66 -20 l29 -24 -20 -20 c-27 -27
-102 -19 -118 14 l-11 22 -21 -20 c-19 -19 -22 -20 -57 -5 -26 11 -55 14 -94
10 -31 -3 -95 -1 -142 4 -47 5 -86 6 -87 3 -5 -12 -123 -3 -139 10 -12 10 -20
10 -35 1 -10 -7 -19 -8 -19 -4 0 5 -28 9 -62 10 -35 0 -157 4 -273 9 -115 5
-212 6 -215 2 -3 -3 -39 -5 -82 -5 -57 1 -74 4 -67 13 7 7 6 14 -2 18 -6 4
-14 3 -18 -3 -7 -12 -182 -19 -200 -8 -6 4 -25 5 -41 1 -17 -4 -30 -2 -30 3 0
10 -57 1 -78 -12 -5 -3 -20 2 -33 12 -18 16 -30 17 -70 10 -30 -6 -56 -5 -67
1 -11 6 -24 6 -32 1 -10 -6 -22 -2 -37 12 -22 21 -23 21 -43 3 -18 -16 -20
-16 -20 -2 0 19 -8 21 -29 8 -8 -5 -32 -3 -60 6 -25 8 -74 13 -109 11 -45 -2
-65 1 -71 11 -6 9 -11 10 -15 2 -10 -15 -47 -14 -90 4 -28 12 -36 12 -36 3 0
-7 -12 -24 -25 -37 -14 -13 -25 -26 -25 -30 0 -13 -99 -10 -133 4 -20 8 -50
11 -75 8 -23 -3 -68 0 -100 6 -55 11 -207 21 -345 22 -37 1 -70 5 -73 10 -3 6
-11 5 -20 -2 -8 -7 -26 -9 -46 -4 -18 4 -49 6 -68 6 -83 -3 -186 -3 -340 -1
-91 2 -180 0 -197 -4 -22 -5 -33 -4 -33 4 0 10 -44 8 -138 -6 -23 -4 -32 -2
-27 5 3 6 3 11 -2 11 -4 0 -19 3 -32 7 -20 5 -23 3 -18 -10 7 -19 -1 -21 -22
-8 -9 6 -24 5 -39 0 -20 -8 -30 -5 -48 12 l-23 22 -11 -28 c-10 -27 -11 -27
-25 -9 -10 13 -14 14 -15 5 0 -10 -11 -12 -42 -9 -33 4 -48 0 -65 -14 -17 -16
-25 -18 -42 -8 -12 6 -26 8 -31 5 -6 -3 -15 -3 -21 1 -7 4 -1 11 17 19 l29 12
-23 12 c-23 12 -148 22 -158 12 -3 -3 -22 -4 -44 -2 l-38 2 -70 -213 c-134
-405 -241 -744 -352 -1113 -383 -1269 -668 -2150 -735 -2273 l-14 -27 -1 30
c-1 95 219 904 575 2115 114 389 207 722 378 1350 l34 125 -75 8 c-42 4 -83 5
-91 1 -9 -4 -20 -6 -25 -5 -42 10 -101 9 -114 -1 -11 -10 -17 -9 -27 5 -9 13
-15 15 -20 7 -4 -6 -21 -10 -39 -9 -17 2 -37 0 -43 -4 -6 -4 -15 -3 -18 3 -7
11 -92 4 -134 -12 -18 -6 -27 -4 -36 9 -10 13 -16 15 -27 6 -9 -8 -65 -13
-153 -14 -77 -2 -144 -5 -150 -8 -9 -5 -230 -13 -290 -11 -46 2 -145 1 -217
-1 -51 -2 -82 2 -92 10 -14 11 -16 11 -16 -5 -1 -18 -1 -18 -14 -1 -13 17 -16
17 -39 2 -17 -11 -27 -13 -32 -6 -3 6 -16 11 -28 11 -13 0 -33 7 -45 16 -20
14 -22 14 -22 0 0 -12 -10 -16 -37 -16 -20 0 -44 -7 -54 -16 -17 -15 -22 -15
-65 0 -56 19 -57 19 -49 6 7 -12 -14 -12 -72 -1 -26 5 -46 4 -52 -2 -7 -7 -18
-4 -35 7 -15 9 -26 12 -26 6 0 -14 -75 -7 -94 9 -10 8 -16 9 -21 1 -4 -7 -16
-4 -36 7 -25 15 -31 15 -38 4 -10 -15 -13 -6 -26 56 -4 22 -13 33 -31 37 -24
6 -29 21 -18 50 4 10 12 13 27 7 12 -4 81 -6 152 -3 72 2 144 4 160 4 17 0 57
0 90 0 33 1 98 1 145 0 47 0 108 -1 136 -1 27 0 63 -5 79 -11 20 -8 30 -8 35
0 7 12 212 7 244 -5 10 -5 21 -4 25 2 8 13 329 -3 355 -18 14 -8 21 -8 26 1
12 19 99 20 168 2 45 -12 67 -14 80 -6 20 12 151 6 169 -8 8 -6 24 -6 45 0 39
11 140 8 185 -6 17 -6 34 -8 37 -5 6 6 211 4 229 -2 30 -11 50 28 93 177 93
317 165 500 218 553 27 27 34 29 54 17z m583 -674 c25 -19 31 -20 39 -8 7 11
12 12 21 3 32 -32 -45 -52 -78 -20 -21 18 -31 47 -18 47 3 0 19 -10 36 -22z
m528 -4 c2 -2 -2 -11 -10 -20 -12 -14 -14 -14 -26 2 -19 26 -16 36 10 28 12
-3 24 -8 26 -10z m45 -10 c26 -10 18 -24 -14 -24 -29 0 -38 9 -23 23 8 9 17 9
37 1z m3260 -131 l-7 -27 37 22 c20 12 44 22 52 22 14 0 53 -37 54 -50 0 -3
-29 -6 -64 -5 -46 0 -69 5 -83 18 -11 9 -26 17 -34 17 -10 1 -8 5 5 15 32 24
47 19 40 -12z m306 -68 c0 -8 -7 -15 -15 -15 -26 0 -18 20 13 29 1 1 2 -6 2
-14z m-3114 -110 c41 -17 160 -133 194 -190 32 -52 31 -114 -3 -225 -14 -47
-26 -98 -25 -115 0 -16 -12 -70 -27 -120 -24 -77 -27 -100 -21 -164 5 -68 3
-85 -25 -170 -27 -79 -31 -104 -26 -159 4 -52 0 -78 -20 -136 -15 -46 -23 -85
-20 -111 2 -22 -2 -66 -10 -99 -15 -61 -9 -84 21 -73 8 3 39 35 69 71 53 64
54 67 49 119 -20 246 191 469 440 466 118 -2 137 -15 28 -20 -75 -4 -107 -11
-153 -32 -69 -31 -137 -83 -137 -103 0 -22 16 -17 71 25 64 48 160 81 239 81
166 0 329 -117 377 -272 10 -32 21 -58 24 -58 11 0 139 260 139 283 0 13 -20
50 -44 83 -70 95 -78 146 -41 275 55 194 205 288 301 188 26 -28 29 -36 28
-97 -1 -77 -25 -153 -90 -291 -43 -92 -46 -111 -19 -111 7 0 15 -6 18 -12 3
-10 13 -8 38 6 150 84 201 108 223 102 30 -7 123 -90 141 -127 23 -43 19 -61
-31 -156 -73 -138 -153 -341 -165 -417 -15 -95 -1 -252 28 -309 13 -25 17 -27
51 -21 56 10 82 27 142 90 104 110 193 268 254 449 15 44 33 91 40 105 l14 24
12 -39 c10 -36 8 -49 -20 -130 -36 -100 -88 -209 -130 -270 -15 -22 -43 -72
-63 -111 -44 -87 -133 -174 -203 -198 -136 -46 -287 21 -353 157 -52 107 -60
181 -36 317 9 47 20 108 25 136 5 28 28 93 51 144 22 51 44 111 47 132 l5 40
-30 -6 c-20 -5 -45 -1 -69 9 -34 14 -39 14 -55 -1 -10 -9 -21 -26 -25 -38 -19
-67 -154 -296 -174 -296 -4 0 -12 -25 -18 -54 -25 -122 -122 -245 -240 -305
-82 -41 -88 -39 -16 7 69 45 115 94 148 160 31 62 50 132 38 144 -13 13 -25
-7 -45 -72 -20 -64 -75 -141 -134 -186 -108 -83 -271 -104 -389 -50 -68 31
-148 105 -187 174 l-24 43 -27 -36 c-38 -50 -78 -85 -96 -85 -9 0 -24 -6 -35
-14 -11 -7 -37 -19 -57 -25 -74 -24 -166 44 -207 154 -12 30 -21 65 -21 75 0
33 -13 22 -48 -38 -40 -69 -149 -192 -206 -231 -54 -37 -115 -55 -159 -47 -53
10 -122 76 -146 142 -12 30 -21 73 -21 95 0 22 -4 38 -9 35 -5 -3 -41 -57 -80
-120 -79 -127 -138 -186 -208 -210 -64 -22 -94 -20 -131 7 -66 49 -102 117
-103 194 -1 85 -11 92 -44 31 -57 -107 -95 -155 -147 -188 -59 -37 -102 -40
-178 -15 -62 21 -113 65 -140 122 -30 64 -25 178 13 273 111 276 282 449 488
492 51 10 59 10 104 -12 68 -33 138 -102 133 -132 -3 -20 -10 -24 -67 -31 -97
-12 -148 -39 -229 -120 -66 -66 -78 -85 -136 -212 -35 -77 -66 -152 -70 -167
-7 -31 10 -119 25 -129 22 -13 61 6 99 48 34 39 147 253 227 431 32 71 43 77
140 77 55 0 66 -4 93 -30 36 -34 36 -43 10 -121 -11 -32 -25 -90 -31 -128 -6
-39 -29 -121 -50 -183 -21 -62 -39 -115 -39 -118 0 -3 14 -5 30 -5 37 0 102
56 153 133 88 132 150 250 163 310 7 34 24 94 37 132 14 39 37 106 52 150 45
130 52 144 80 151 89 22 186 -97 170 -211 -3 -27 -6 -75 -6 -105 1 -39 -10
-89 -39 -175 -22 -66 -43 -138 -47 -160 -3 -22 -15 -54 -25 -72 -20 -33 -21
-84 -2 -90 15 -5 123 82 173 140 24 29 69 89 99 135 61 92 56 68 102 442 35
284 41 323 60 400 10 41 26 145 34 230 18 177 39 282 61 316 18 28 24 29 71 9z
m-358 -301 c48 -20 92 -62 92 -88 0 -28 -89 -174 -120 -198 -22 -16 -30 -17
-69 -5 -63 18 -103 70 -109 142 -6 72 11 109 62 140 47 29 91 31 144 9z m-354
-2053 c36 -39 -14 -92 -68 -72 -36 14 -46 50 -20 75 21 22 67 20 88 -3z m-174
-201 l0 -210 -50 0 -50 0 0 210 0 210 50 0 50 0 0 -210z m652 131 l-3 -73 27
21 c29 23 79 27 118 10 43 -20 56 -65 56 -188 l0 -111 -55 0 -55 0 0 96 c0 97
-10 134 -35 134 -35 0 -45 -29 -45 -131 l0 -99 -55 0 -55 0 0 211 0 210 53 -3
52 -3 -3 -74z m1130 0 l-3 -73 27 21 c29 23 79 27 118 10 43 -20 56 -65 56
-188 l0 -111 -55 0 -55 0 0 96 c0 97 -10 134 -35 134 -35 0 -45 -29 -45 -131
l0 -99 -55 0 -55 0 0 211 0 210 53 -3 52 -3 -3 -74z m1078 -131 l0 -210 -55 0
-55 0 0 210 0 210 55 0 55 0 0 -210z m-3732 143 l3 -43 -65 0 -66 0 0 -30 0
-30 60 0 60 0 0 -45 0 -45 -60 0 -60 0 0 -35 0 -35 65 0 65 0 0 -45 0 -45
-120 0 -120 0 0 193 c0 107 3 197 7 201 4 3 57 5 117 4 l111 -3 3 -42z m2174
29 l27 -11 -16 -41 c-14 -34 -19 -39 -37 -33 -12 4 -41 8 -66 8 -64 0 -59 -23
13 -61 86 -45 102 -65 102 -124 0 -40 -5 -54 -29 -79 -41 -42 -112 -58 -186
-39 l-55 13 -3 49 c-3 43 -1 48 15 41 10 -3 42 -12 71 -18 45 -10 54 -9 69 5
22 23 8 38 -63 73 -66 32 -87 62 -87 121 0 49 19 78 68 101 34 15 134 13 177
-5z m-2025 -91 c5 -19 5 -19 36 0 35 21 97 25 128 9 38 -21 49 -62 49 -185 l0
-115 -55 0 -54 0 -3 106 c-2 87 -6 109 -20 118 -13 8 -22 6 -37 -8 -19 -17
-21 -31 -21 -118 l0 -98 -55 0 -55 0 0 155 0 155 41 0 c32 0 42 -4 46 -19z
m573 -10 c0 -20 -6 -32 -18 -35 -13 -4 -17 -16 -17 -46 0 -59 -37 -92 -109
-98 -90 -7 -67 -32 29 -32 68 0 82 -6 101 -42 23 -45 11 -92 -33 -125 -34 -26
-43 -28 -129 -28 -84 0 -95 2 -118 24 -35 33 -34 72 2 103 26 22 28 26 15 45
-11 17 -12 26 -3 42 6 12 16 21 22 21 6 0 1 12 -13 26 -46 49 -26 139 36 165
11 4 68 8 128 8 l107 1 0 -29z m330 -126 l0 -155 -50 0 -50 0 0 155 0 155 50
0 50 0 0 -155z m277 142 c31 -12 31 -12 17 -46 -9 -22 -19 -31 -28 -28 -36 14
-84 18 -91 8 -4 -7 14 -21 48 -36 63 -27 87 -56 87 -101 0 -68 -76 -113 -168
-99 -68 10 -72 13 -72 57 l0 39 38 -8 c96 -19 135 3 58 32 -61 24 -96 59 -96
99 0 37 23 74 54 86 30 12 115 11 153 -3z m1141 2 l32 -11 -16 -36 c-19 -46
-15 -44 -53 -31 -25 9 -36 8 -56 -5 -20 -13 -25 -25 -25 -59 0 -62 17 -81 66
-75 21 4 47 9 57 13 14 6 17 1 17 -34 0 -50 -22 -64 -102 -64 -102 0 -151 55
-146 165 4 72 17 95 73 129 34 21 105 25 153 8z m673 -12 c92 -61 92 -218 -1
-271 -47 -28 -130 -27 -167 0 -65 49 -87 156 -46 227 38 66 148 89 214 44z
m348 5 c47 -25 71 -74 71 -142 0 -97 -51 -152 -143 -154 -98 -1 -157 58 -157
159 0 95 58 155 150 155 25 0 61 -8 79 -18z"/>
<path d="M4171 7385 c-29 -63 -122 -340 -155 -464 l-25 -93 22 6 c12 3 25 6
30 6 10 0 21 30 63 173 54 183 96 364 92 395 -4 25 -6 23 -27 -23z m-122 -481
c-13 -14 -25 -20 -27 -14 -5 15 17 40 36 40 12 0 10 -6 -9 -26z"/>
<path d="M4617 6902 c-5 -7 -12 -10 -17 -7 -5 3 -20 -5 -34 -19 -23 -20 -24
-25 -11 -36 9 -7 15 -8 15 -2 0 6 16 8 43 4 35 -4 40 -3 30 9 -6 8 -13 25 -15
39 -2 17 -6 21 -11 12z"/>
<path d="M4128 6880 c-7 -24 -3 -38 8 -28 3 4 4 17 2 30 l-3 23 -7 -25z"/>
<path d="M4201 6876 c-7 -8 -9 -20 -5 -27 5 -8 10 -7 16 5 9 16 11 16 23 0 10
-15 16 -16 28 -6 9 8 26 10 42 6 21 -5 26 -3 23 7 -3 8 -20 14 -44 14 -21 1
-46 4 -55 9 -10 4 -21 1 -28 -8z"/>
<path d="M4711 6847 c-12 -16 -5 -27 17 -27 9 0 12 3 9 7 -4 3 -2 12 4 20 9
10 8 13 -4 13 -8 0 -20 -6 -26 -13z"/>
<path d="M3966 6723 c-12 -45 -17 -103 -8 -103 12 0 54 99 46 111 -9 15 -32
10 -38 -8z"/>
<path d="M7132 5923 c-54 -84 -65 -145 -38 -208 l12 -29 18 44 c10 25 29 76
42 114 43 124 23 169 -34 79z"/>
<path d="M6398 5476 c-141 -38 -218 -178 -177 -323 17 -61 98 -146 155 -162
114 -32 228 3 289 88 54 73 66 141 40 227 -38 128 -177 205 -307 170z m122
-145 c69 -50 75 -128 15 -188 -27 -27 -41 -33 -74 -33 -109 0 -167 103 -108
191 39 58 111 71 167 30z"/>
<path d="M6102 5424 c-41 -28 -22 -94 28 -94 35 0 60 23 60 55 0 23 -32 55
-55 55 -6 0 -21 -7 -33 -16z"/>
<path d="M4629 4039 c-13 -26 2 -69 25 -69 24 0 40 38 27 66 -13 30 -37 31
-52 3z"/>
<path d="M4602 3788 c-18 -18 -15 -27 14 -38 37 -14 106 5 102 28 -4 21 -96
30 -116 10z"/>
<path d="M7129 4023 c-21 -25 -17 -112 6 -129 24 -18 30 -17 49 2 18 18 22 95
6 125 -13 23 -43 25 -61 2z"/>
<path d="M7482 4028 c-18 -18 -15 -113 4 -132 18 -19 20 -19 45 -6 15 9 19 22
19 68 0 59 -11 82 -40 82 -9 0 -21 -5 -28 -12z"/>
</g>
</svg>
