<svg id="svg" version="1.1" xmlns="http://www.w3.org/2000/svg" xmlns:xlink="http://www.w3.org/1999/xlink" width="400" height="400" viewBox="0, 0, 400,400"><g id="svgg"><path id="path0" d="M180.926 25.562 C 72.651 34.028,-1.735 136.920,24.292 242.222 C 45.378 327.533,126.826 383.715,214.630 373.515 C 293.438 364.360,357.137 301.501,367.194 222.963 C 379.814 124.411,310.672 37.017,211.296 25.912 C 206.541 25.381,186.234 25.146,180.926 25.562 M204.878 29.264 C 307.423 36.038,380.737 129.994,362.380 231.111 C 349.617 301.414,292.954 357.211,222.486 368.870 C 102.289 388.756,0.639 281.268,27.060 162.222 C 45.114 80.882,121.512 23.757,204.878 29.264 M154.975 120.833 C 153.123 123.025,151.135 128.147,147.966 138.889 C 146.655 143.335,145.573 146.344,145.150 146.718 C 144.384 147.396,134.005 147.497,132.943 146.838 C 132.303 146.440,127.472 146.608,126.631 147.057 C 126.270 147.249,125.877 147.210,125.623 146.956 C 125.389 146.722,124.283 146.576,123.101 146.624 C 121.741 146.679,120.895 146.546,120.711 146.249 C 120.486 145.884,120.308 145.887,119.852 146.266 C 119.482 146.573,118.713 146.671,117.694 146.541 C 112.970 145.939,111.800 145.859,110.928 146.078 C 110.401 146.210,110.070 146.480,110.192 146.678 C 110.519 147.207,109.921 147.093,109.096 146.470 C 108.544 146.052,107.183 145.926,103.238 145.926 C 100.136 145.926,97.791 145.761,97.320 145.509 C 96.690 145.171,96.452 145.212,96.080 145.720 C 95.665 146.288,95.518 146.296,94.558 145.800 C 93.920 145.470,93.278 145.372,92.950 145.555 C 92.650 145.723,91.018 145.677,89.323 145.454 C 86.887 145.132,86.180 145.145,85.951 145.515 C 85.733 145.868,85.308 145.893,84.220 145.615 C 83.427 145.413,81.861 145.226,80.741 145.200 C 79.620 145.174,78.120 145.133,77.407 145.107 C 76.339 145.069,60.016 145.514,58.148 145.632 C 57.843 145.651,57.134 145.540,56.574 145.386 C 55.660 145.134,55.556 145.200,55.556 146.028 C 55.556 146.633,55.806 147.016,56.281 147.140 C 56.777 147.270,57.144 147.874,57.438 149.043 C 57.755 150.302,57.987 150.658,58.312 150.388 C 58.612 150.139,59.014 150.203,59.563 150.588 C 60.008 150.899,60.535 151.053,60.734 150.930 C 60.933 150.807,61.474 150.911,61.937 151.162 C 63.105 151.795,65.185 151.977,65.185 151.447 C 65.185 151.140,65.341 151.149,65.739 151.480 C 66.043 151.732,66.714 151.858,67.229 151.760 C 67.745 151.661,68.944 151.726,69.894 151.903 C 71.100 152.129,71.699 152.099,71.881 151.805 C 72.070 151.499,72.617 151.546,73.892 151.981 C 75.567 152.551,75.684 152.545,76.583 151.838 C 77.155 151.388,77.802 151.186,78.234 151.323 C 78.689 151.468,79.120 151.307,79.438 150.872 C 79.894 150.249,79.987 150.242,80.615 150.787 C 81.547 151.597,83.599 151.934,84.538 151.431 C 85.168 151.094,85.403 151.143,85.804 151.691 C 86.241 152.288,86.296 152.294,86.296 151.747 C 86.296 151.252,86.469 151.195,87.167 151.461 C 88.017 151.784,108.222 151.698,108.789 151.369 C 108.946 151.278,111.456 151.179,114.368 151.150 C 117.827 151.115,119.917 150.939,120.398 150.641 C 120.985 150.277,121.194 150.281,121.430 150.661 C 121.666 151.041,122.269 151.053,124.399 150.723 C 126.452 150.404,127.196 150.412,127.610 150.755 C 127.976 151.059,128.148 151.072,128.148 150.795 C 128.148 150.545,128.558 150.471,129.214 150.602 C 129.800 150.719,130.616 150.635,131.027 150.415 C 131.603 150.107,131.879 150.142,132.232 150.568 C 132.582 150.989,132.812 151.020,133.200 150.698 C 133.529 150.425,134.374 150.364,135.592 150.525 C 136.674 150.669,137.661 150.621,137.912 150.413 C 138.269 150.116,143.882 150.569,144.364 150.933 C 144.467 151.011,139.496 169.301,134.401 187.593 C 132.982 192.685,130.505 201.269,128.896 206.667 C 116.515 248.204,106.407 285.915,108.098 284.259 C 109.348 283.036,120.717 248.424,130.545 215.926 C 132.301 210.120,134.998 201.204,136.539 196.111 C 141.406 180.023,150.592 151.562,151.099 151.003 C 152.001 150.007,160.991 150.665,160.595 151.698 C 160.202 152.721,161.668 153.410,162.435 152.562 C 163.010 151.927,163.403 151.828,164.594 152.018 C 165.565 152.173,166.143 152.100,166.330 151.797 C 166.548 151.445,166.744 151.455,167.213 151.844 C 167.734 152.277,167.843 152.236,168.025 151.542 C 168.285 150.548,168.448 150.545,169.478 151.513 C 170.159 152.152,170.437 152.213,171.090 151.863 C 171.524 151.631,172.207 151.544,172.607 151.671 C 173.119 151.834,173.333 151.729,173.333 151.316 C 173.333 150.794,173.469 150.788,174.596 151.258 C 175.960 151.828,178.950 151.929,180.249 151.449 C 180.796 151.247,181.195 151.322,181.495 151.683 C 181.737 151.975,182.088 152.120,182.274 152.005 C 182.852 151.648,189.187 151.572,195.000 151.852 C 199.526 152.071,200.753 152.021,201.622 151.581 C 202.575 151.100,202.842 151.111,204.126 151.690 C 205.269 152.205,205.749 152.253,206.472 151.924 C 207.012 151.678,207.467 151.648,207.592 151.851 C 207.708 152.039,208.839 152.121,210.105 152.032 C 211.372 151.944,213.563 152.066,214.976 152.303 C 216.965 152.638,217.578 152.636,217.693 152.292 C 217.774 152.047,218.024 151.961,218.248 152.099 C 218.940 152.526,226.046 153.336,227.222 153.122 C 227.833 153.010,228.917 153.156,229.630 153.447 C 231.724 154.299,234.157 154.003,234.742 152.825 C 235.008 152.290,235.484 151.852,235.801 151.852 C 236.159 151.852,236.295 151.643,236.162 151.296 C 235.890 150.587,236.291 150.597,238.163 151.346 C 239.355 151.822,239.868 151.862,240.591 151.533 C 241.329 151.196,241.547 151.221,241.716 151.662 C 241.863 152.045,242.111 152.109,242.543 151.878 C 242.910 151.682,244.282 151.703,245.932 151.931 C 247.456 152.141,249.329 152.326,250.093 152.342 C 251.047 152.362,251.481 152.540,251.481 152.910 C 251.481 153.354,251.601 153.340,252.159 152.835 C 253.002 152.072,253.480 152.062,254.088 152.795 C 254.349 153.109,254.788 153.281,255.063 153.175 C 255.337 153.070,255.950 153.131,256.424 153.312 C 256.943 153.509,257.986 153.490,259.040 153.266 C 260.551 152.944,260.857 152.981,261.264 153.538 C 261.628 154.035,261.984 154.116,262.813 153.890 C 264.462 153.440,265.349 153.402,265.586 153.769 C 265.712 153.963,266.241 153.936,266.850 153.704 C 267.574 153.429,268.017 153.425,268.283 153.690 C 268.803 154.210,274.925 154.186,275.449 153.662 C 275.995 153.116,276.830 153.616,276.345 154.200 C 276.079 154.520,276.706 154.617,278.813 154.580 C 280.439 154.551,281.694 154.363,281.770 154.135 C 281.858 153.871,282.203 153.856,282.818 154.090 C 283.323 154.281,286.379 154.398,289.610 154.349 C 292.841 154.300,295.414 154.374,295.327 154.515 C 295.240 154.655,295.464 154.760,295.825 154.748 C 296.186 154.736,297.512 154.832,298.771 154.962 C 300.200 155.108,301.149 155.053,301.296 154.815 C 301.426 154.604,301.729 154.558,301.970 154.711 C 302.448 155.015,303.023 155.088,306.759 155.321 C 308.162 155.408,309.259 155.326,309.259 155.133 C 309.259 154.942,309.601 154.972,310.025 155.199 C 310.446 155.424,313.071 155.657,315.858 155.716 C 318.646 155.775,321.343 155.995,321.852 156.205 C 322.609 156.518,322.929 156.448,323.611 155.822 C 324.319 155.171,324.444 155.148,324.444 155.663 C 324.444 157.126,328.637 157.674,329.083 156.269 C 329.519 154.893,327.050 153.645,325.515 154.466 C 324.888 154.802,324.628 154.810,324.524 154.498 C 324.446 154.265,324.050 154.074,323.644 154.074 C 323.237 154.074,322.225 153.407,321.393 152.593 C 320.562 151.778,319.584 151.111,319.219 151.111 C 318.854 151.111,318.404 150.841,318.219 150.510 C 317.924 149.982,317.811 150.013,317.283 150.766 C 316.954 151.237,316.570 151.508,316.431 151.369 C 316.291 151.230,316.488 150.773,316.867 150.353 C 317.553 149.596,317.548 149.591,316.094 149.604 C 315.288 149.611,314.296 149.609,313.889 149.599 C 313.481 149.588,311.844 149.751,310.250 149.960 C 306.920 150.397,305.310 150.184,304.804 149.239 C 303.999 147.735,303.454 147.528,300.126 147.469 C 298.325 147.436,296.082 147.602,295.142 147.836 C 293.884 148.150,293.009 148.156,291.834 147.858 C 290.824 147.601,290.001 147.579,289.594 147.797 C 289.102 148.060,288.587 147.837,287.400 146.846 C 286.548 146.133,285.492 145.461,285.055 145.351 C 283.446 144.949,270.296 145.447,270.002 145.922 C 269.798 146.253,269.652 146.262,269.463 145.956 C 269.017 145.234,264.865 145.712,263.990 146.586 C 263.358 147.218,263.066 147.276,262.136 146.951 C 261.278 146.652,260.961 146.681,260.716 147.078 C 260.457 147.496,260.311 147.468,259.911 146.921 C 259.526 146.395,259.228 146.326,258.508 146.598 C 257.079 147.139,249.264 146.903,248.897 146.309 C 248.674 145.948,248.167 145.893,246.982 146.101 C 246.096 146.257,244.793 146.374,244.087 146.361 C 243.381 146.348,242.603 146.504,242.358 146.708 C 242.049 146.964,241.815 146.905,241.597 146.516 C 241.321 146.022,241.105 146.017,239.808 146.479 C 238.008 147.120,237.037 147.172,237.037 146.627 C 237.037 146.379,236.781 146.325,236.389 146.492 C 235.359 146.929,224.833 147.632,224.245 147.303 C 223.953 147.140,223.420 147.149,223.060 147.325 C 222.413 147.640,196.595 147.580,190.185 147.248 C 187.455 147.106,178.294 146.998,177.448 147.098 C 176.523 147.207,176.231 147.007,176.623 146.534 C 177.235 145.796,175.742 143.965,174.778 144.271 C 174.357 144.405,174.074 144.318,174.074 144.056 C 174.074 143.786,173.760 143.699,173.260 143.830 C 172.812 143.947,172.229 143.863,171.964 143.643 C 171.583 143.327,171.481 143.524,171.481 144.584 C 171.481 145.322,171.648 145.926,171.852 145.926 C 172.056 145.926,172.222 146.176,172.222 146.481 C 172.222 147.131,172.059 147.151,170.481 146.698 C 169.648 146.459,169.253 146.487,169.141 146.791 C 169.022 147.113,168.858 147.106,168.496 146.764 C 167.917 146.219,169.453 144.298,170.229 144.595 C 170.477 144.690,170.771 144.529,170.884 144.236 C 171.037 143.836,170.768 143.704,169.803 143.704 C 169.097 143.704,168.519 143.891,168.519 144.119 C 168.519 144.424,168.382 144.422,168.010 144.113 C 167.478 143.671,166.173 145.148,166.173 146.192 C 166.173 146.453,165.951 146.667,165.679 146.667 C 165.350 146.667,165.185 146.173,165.185 145.185 C 165.185 143.424,164.161 143.145,162.709 144.509 L 161.852 145.314 161.852 144.509 C 161.852 143.677,160.912 143.374,160.662 144.125 C 160.562 144.424,160.286 144.398,159.705 144.035 C 159.029 143.613,158.756 143.609,158.113 144.010 C 157.451 144.423,157.231 144.400,156.625 143.851 C 155.969 143.257,155.879 143.254,155.457 143.815 C 155.035 144.376,154.939 144.374,154.189 143.785 L 153.378 143.148 154.812 138.271 C 159.111 123.646,159.184 115.852,154.975 120.833 M155.535 126.933 C 154.982 130.386,151.635 142.858,150.412 146.019 C 150.079 146.879,147.778 147.652,147.778 146.903 C 147.778 145.486,153.220 128.697,154.479 126.229 C 155.426 124.372,155.895 124.685,155.535 126.933 M182.369 144.582 C 182.696 145.371,182.963 146.050,182.963 146.090 C 182.963 146.200,187.804 145.602,188.981 145.347 C 189.543 145.225,190.000 145.287,190.000 145.485 C 190.000 146.043,192.573 146.403,193.148 145.926 C 193.525 145.613,194.025 145.704,195.193 146.300 C 196.637 147.037,197.933 147.013,196.612 146.273 C 196.280 146.087,195.898 145.496,195.764 144.959 C 195.536 144.054,195.484 144.031,195.034 144.645 C 194.570 145.280,194.534 145.280,194.181 144.649 C 193.864 144.083,193.689 144.056,192.942 144.455 C 192.304 144.797,192.035 144.809,191.931 144.498 C 191.724 143.876,191.111 143.981,191.111 144.638 C 191.111 145.133,190.998 145.128,190.190 144.599 C 189.531 144.167,188.819 144.057,187.690 144.212 C 183.491 144.790,183.544 144.793,182.646 143.958 L 181.774 143.148 182.369 144.582 M149.017 144.275 C 148.672 145.174,149.076 145.261,149.813 144.447 C 150.426 143.769,150.431 143.704,149.861 143.704 C 149.517 143.704,149.137 143.961,149.017 144.275 M177.407 143.992 C 177.407 144.150,177.667 144.650,177.984 145.103 C 178.677 146.092,181.111 146.301,181.111 145.370 C 181.111 144.701,180.679 144.654,180.074 145.259 C 179.728 145.605,179.630 145.605,179.630 145.259 C 179.630 145.015,179.397 144.815,179.114 144.815 C 178.830 144.815,178.502 144.565,178.385 144.259 C 178.165 143.687,177.407 143.479,177.407 143.992 M153.438 146.389 C 152.922 147.354,152.291 146.580,152.684 145.463 C 153.104 144.269,153.110 144.267,153.347 145.185 C 153.479 145.694,153.520 146.236,153.438 146.389 M197.043 145.196 C 197.471 145.997,198.148 145.864,198.148 144.978 C 198.148 144.685,197.809 144.444,197.394 144.444 C 196.752 144.444,196.700 144.555,197.043 145.196 M158.889 145.373 C 160.662 145.481,160.741 145.504,160.741 145.926 C 160.741 146.130,160.107 146.296,159.333 146.296 C 158.559 146.296,157.731 146.491,157.494 146.729 C 157.164 147.058,157.005 147.014,156.824 146.543 C 156.694 146.204,156.429 145.926,156.235 145.926 C 156.041 145.926,155.978 146.081,156.095 146.271 C 156.212 146.460,156.151 146.713,155.959 146.832 C 155.766 146.951,155.496 146.691,155.357 146.255 C 155.056 145.305,155.779 144.728,156.852 145.063 C 157.259 145.191,158.176 145.330,158.889 145.373 M198.889 145.248 C 198.889 145.768,200.010 146.064,200.421 145.653 C 200.670 145.405,200.477 145.221,199.841 145.099 C 199.317 144.999,198.889 145.066,198.889 145.248 M175.720 145.893 C 176.069 146.457,175.515 147.407,174.837 147.407 C 173.839 147.407,173.646 146.974,174.316 146.234 C 174.995 145.483,175.406 145.384,175.720 145.893 M319.667 149.399 C 319.334 149.800,319.404 149.951,319.992 150.105 C 320.550 150.251,320.741 150.121,320.741 149.595 C 320.741 148.766,320.265 148.679,319.667 149.399 M322.296 150.007 C 321.624 150.417,321.181 150.924,321.311 151.135 C 321.468 151.390,321.731 151.365,322.098 151.060 C 322.511 150.718,322.715 150.711,322.914 151.032 C 323.082 151.303,323.688 151.377,324.569 151.234 L 325.959 151.009 325.137 150.134 C 324.137 149.070,323.855 149.057,322.296 150.007 M148.519 150.879 C 148.519 151.629,147.083 154.743,146.598 155.042 C 146.179 155.301,146.433 151.418,146.883 150.691 C 147.203 150.173,148.519 150.324,148.519 150.879 M331.111 152.593 C 331.111 152.796,331.361 152.963,331.667 152.963 C 331.972 152.963,332.222 152.796,332.222 152.593 C 332.222 152.389,331.972 152.222,331.667 152.222 C 331.361 152.222,331.111 152.389,331.111 152.593 M214.309 157.130 C 213.423 158.544,212.437 163.925,212.053 169.444 C 211.939 171.074,211.510 173.991,211.098 175.926 C 210.027 180.968,209.768 182.541,209.087 188.148 C 206.808 206.926,207.261 205.390,201.955 212.319 C 197.555 218.064,192.058 220.352,194.384 215.471 C 194.798 214.601,195.413 212.809,195.749 211.489 C 196.085 210.169,196.923 207.419,197.611 205.378 C 198.844 201.722,198.909 201.197,198.950 194.694 C 198.986 189.135,191.817 185.915,190.883 191.069 C 190.750 191.805,190.142 193.657,189.532 195.185 C 188.206 198.507,187.226 201.573,186.477 204.747 C 185.968 206.903,184.423 209.857,180.910 215.387 C 178.527 219.138,175.033 221.848,173.961 220.776 C 173.706 220.520,174.082 218.932,175.130 215.848 C 175.980 213.344,176.673 210.790,176.671 210.170 C 176.669 209.551,177.178 207.410,177.802 205.412 C 179.029 201.487,179.016 201.385,177.068 199.722 C 176.426 199.174,171.746 199.092,170.775 199.611 C 170.414 199.805,169.663 201.013,169.108 202.296 C 165.598 210.403,161.152 218.279,159.524 219.271 C 157.081 220.761,156.148 219.952,156.160 216.357 C 156.169 213.765,156.244 213.560,160.059 205.646 C 162.631 200.311,168.022 196.296,172.614 196.296 C 175.477 196.296,175.221 194.178,172.087 191.928 C 165.344 187.085,155.628 192.526,149.734 204.444 C 145.009 213.999,145.931 220.138,152.456 222.579 C 157.145 224.333,160.340 222.651,163.684 216.667 C 166.028 212.471,166.296 212.316,166.296 215.155 C 166.296 219.193,167.959 222.451,170.760 223.899 C 174.170 225.662,178.416 222.696,182.968 215.370 L 185.730 210.926 185.999 213.046 C 187.526 225.112,198.987 223.690,205.988 210.566 L 207.168 208.354 207.648 210.465 C 209.123 216.960,212.827 219.819,217.198 217.835 C 218.026 217.459,219.159 216.964,219.716 216.735 C 220.272 216.506,221.437 215.401,222.305 214.280 L 223.882 212.242 224.580 213.725 C 229.964 225.164,246.876 223.761,250.982 211.535 C 251.988 208.538,253.208 207.786,252.861 210.376 C 252.398 213.830,249.430 218.087,245.556 220.853 C 245.046 221.216,245.533 221.048,246.637 220.479 C 250.680 218.395,254.356 213.694,255.120 209.630 C 255.332 208.504,256.061 207.136,257.368 205.414 C 258.433 204.012,260.223 200.953,261.346 198.617 C 263.327 194.495,263.418 194.377,264.379 194.640 C 264.924 194.790,266.179 194.932,267.168 194.956 L 268.965 195.000 268.795 196.667 C 268.702 197.583,267.946 199.833,267.115 201.667 C 266.265 203.542,265.421 206.134,265.185 207.593 C 264.955 209.019,264.513 211.493,264.203 213.092 C 261.450 227.309,277.654 236.184,284.691 224.313 C 288.947 217.133,289.953 215.328,291.326 212.407 C 293.493 207.797,294.237 205.244,293.914 203.523 C 293.564 201.656,293.265 202.078,291.687 206.667 C 288.140 216.982,282.010 225.502,277.527 226.349 C 275.223 226.784,274.680 226.184,274.062 222.522 C 272.912 215.704,274.597 208.864,279.818 199.162 C 282.532 194.118,281.935 191.816,277.189 189.035 L 275.590 188.098 273.999 188.806 C 273.124 189.196,271.279 190.207,269.901 191.054 C 267.085 192.782,266.820 192.837,265.645 191.932 L 264.809 191.289 266.464 187.529 C 270.742 177.808,270.873 173.775,266.960 172.286 C 260.631 169.877,254.083 183.264,258.515 189.552 C 259.191 190.511,260.062 191.726,260.451 192.251 C 261.341 193.456,260.790 195.100,257.538 200.946 L 255.400 204.787 254.909 202.857 C 252.306 192.640,240.005 188.699,231.379 195.319 C 229.927 196.434,229.570 196.572,229.387 196.094 C 228.802 194.570,233.910 191.468,238.333 190.659 C 240.747 190.218,240.821 190.178,239.399 190.074 C 230.775 189.442,223.019 197.052,222.793 206.365 C 222.716 209.575,222.712 209.585,221.080 211.585 C 217.682 215.747,216.605 215.733,217.397 211.537 C 217.663 210.127,217.793 208.517,217.686 207.958 C 217.575 207.374,217.885 205.743,218.417 204.119 C 219.161 201.852,219.301 200.846,219.132 199.006 C 218.954 197.069,219.105 196.154,220.114 193.080 C 221.160 189.888,221.279 189.128,221.083 186.852 C 220.895 184.674,221.028 183.673,221.911 180.600 C 222.490 178.587,222.963 176.465,222.963 175.883 C 222.963 175.302,223.380 173.388,223.889 171.631 C 225.516 166.015,225.174 164.481,221.375 160.370 C 217.788 156.488,215.398 155.393,214.309 157.130 M199.074 167.543 C 194.000 169.876,195.327 177.796,200.897 178.424 C 202.764 178.634,203.569 177.803,205.958 173.195 C 207.149 170.898,207.165 170.806,206.549 169.866 C 205.235 167.860,201.147 166.590,199.074 167.543 M266.336 178.981 C 266.531 181.289,263.792 189.587,262.997 189.095 C 262.158 188.577,261.846 185.598,262.446 183.832 C 263.563 180.541,266.190 177.265,266.336 178.981 M243.545 197.704 C 248.147 200.075,250.140 205.637,248.017 210.185 C 243.623 219.601,229.871 216.444,229.931 206.033 C 229.971 199.171,237.477 194.578,243.545 197.704 M228.674 199.227 C 230.295 201.018,228.150 203.778,226.154 202.469 C 224.412 201.328,225.150 198.519,227.191 198.519 C 227.654 198.519,228.322 198.837,228.674 199.227 M236.427 202.565 C 233.075 204.609,234.428 210.091,238.417 210.626 C 241.222 211.002,243.333 209.027,243.333 206.027 C 243.333 202.663,239.455 200.719,236.427 202.565 M187.847 243.354 C 187.155 243.631,187.012 243.931,187.106 244.904 C 187.287 246.782,190.491 246.785,190.672 244.907 C 190.771 243.872,189.611 242.699,188.772 242.986 C 188.735 242.999,188.318 243.165,187.847 243.354 M180.370 251.111 L 180.370 258.889 182.222 258.889 L 184.074 258.889 184.074 251.111 L 184.074 243.333 182.222 243.333 L 180.370 243.333 180.370 251.111 M204.444 251.111 L 204.444 258.889 206.296 258.889 L 208.148 258.889 208.154 255.648 C 208.159 252.224,208.642 250.649,209.749 250.436 C 211.164 250.163,211.481 251.008,211.481 255.045 L 211.481 258.889 213.333 258.889 L 215.185 258.889 215.185 254.280 C 215.185 249.942,215.133 249.610,214.291 248.632 C 213.162 247.319,210.213 247.135,208.928 248.298 L 208.148 249.004 208.148 246.169 L 208.148 243.333 206.296 243.333 L 204.444 243.333 204.444 251.111 M246.296 251.111 L 246.296 258.889 248.148 258.889 L 250.000 258.889 250.005 255.648 C 250.011 252.224,250.493 250.649,251.601 250.436 C 253.016 250.163,253.333 251.008,253.333 255.045 L 253.333 258.889 255.185 258.889 L 257.037 258.889 257.037 254.280 C 257.037 249.942,256.985 249.610,256.143 248.632 C 255.014 247.319,252.065 247.135,250.780 248.298 L 250.000 249.004 250.000 246.169 L 250.000 243.333 248.148 243.333 L 246.296 243.333 246.296 251.111 M286.296 251.111 L 286.296 258.889 288.148 258.889 L 290.000 258.889 290.000 251.111 L 290.000 243.333 288.148 243.333 L 286.296 243.333 286.296 251.111 M226.111 244.632 C 221.801 246.161,222.323 250.583,227.098 252.994 C 231.586 255.259,228.537 257.014,223.611 255.001 C 223.050 254.771,222.963 254.961,222.963 256.406 C 222.963 258.379,223.852 258.889,227.289 258.889 C 234.091 258.889,235.384 253.092,229.270 250.005 C 225.966 248.338,226.423 246.420,229.895 247.384 C 231.928 247.949,232.108 247.897,232.552 246.624 C 233.307 244.457,229.727 243.350,226.111 244.632 M143.333 251.667 L 143.333 258.889 147.593 258.889 L 151.852 258.889 151.852 257.407 L 151.852 255.926 149.444 255.926 L 147.037 255.926 147.037 254.444 L 147.037 252.963 149.259 252.963 L 151.481 252.963 151.481 251.481 L 151.481 250.000 149.259 250.000 L 147.037 250.000 147.037 248.704 L 147.037 247.407 149.444 247.407 L 151.852 247.407 151.852 245.926 L 151.852 244.444 147.593 244.444 L 143.333 244.444 143.333 251.667 M159.630 247.651 C 159.324 247.774,158.769 248.141,158.396 248.467 C 157.772 249.011,157.688 249.007,157.359 248.418 C 157.113 247.980,156.539 247.778,155.537 247.778 L 154.074 247.778 154.074 253.333 L 154.074 258.889 155.926 258.889 L 157.778 258.889 157.799 256.019 C 157.826 252.203,158.381 250.593,159.722 250.438 C 161.105 250.279,161.481 251.380,161.481 255.580 L 161.481 258.889 163.371 258.889 L 165.261 258.889 165.131 254.267 C 164.968 248.505,163.100 246.259,159.630 247.651 M170.109 247.796 C 167.801 248.506,166.869 252.054,168.549 253.734 C 169.255 254.441,169.271 254.559,168.734 255.152 C 167.984 255.980,167.979 257.366,168.724 257.652 C 169.170 257.823,169.047 258.026,168.178 258.554 C 165.012 260.480,167.250 263.707,171.747 263.702 C 179.153 263.693,181.227 256.888,173.997 256.319 C 171.375 256.113,169.829 255.188,172.099 255.183 C 175.275 255.177,177.037 253.831,177.037 251.412 C 177.037 250.405,177.240 249.918,177.778 249.630 C 179.137 248.902,178.720 247.778,177.091 247.778 C 176.306 247.778,174.681 247.700,173.480 247.604 C 172.279 247.509,170.762 247.595,170.109 247.796 M195.565 247.891 C 192.201 249.047,192.763 252.626,196.574 254.314 C 200.024 255.843,197.611 257.161,193.981 255.732 C 193.430 255.514,193.333 255.696,193.333 256.954 C 193.333 258.685,193.720 258.877,197.222 258.882 C 202.874 258.892,204.182 253.936,199.085 251.824 C 196.663 250.820,196.289 249.834,198.426 250.086 C 199.190 250.177,200.077 250.367,200.397 250.510 C 200.934 250.749,201.852 249.509,201.852 248.545 C 201.852 247.655,197.553 247.208,195.565 247.891 M238.386 247.767 C 235.398 248.723,234.049 252.284,235.299 255.913 C 236.584 259.646,244.074 260.205,244.074 256.568 C 244.074 255.314,243.982 255.146,243.426 255.391 C 241.004 256.455,239.106 255.907,238.693 254.024 C 238.145 251.531,239.883 249.870,242.196 250.676 C 243.382 251.090,244.687 248.983,243.796 248.093 C 243.288 247.584,239.643 247.364,238.386 247.767 M262.600 248.034 C 258.902 249.956,258.545 256.079,262.007 258.190 C 264.349 259.619,268.477 258.832,269.725 256.719 C 272.787 251.535,267.729 245.368,262.600 248.034 M275.582 248.056 C 272.797 249.476,271.806 252.957,273.305 256.052 C 275.268 260.108,281.567 259.932,283.154 255.776 C 284.770 251.545,282.296 247.409,278.148 247.409 C 277.435 247.409,276.280 247.700,275.582 248.056 M187.037 253.333 L 187.037 258.889 188.889 258.889 L 190.741 258.889 190.741 253.333 L 190.741 247.778 188.889 247.778 L 187.037 247.778 187.037 253.333 M173.545 250.529 C 173.895 251.925,173.410 252.963,172.407 252.963 C 171.404 252.963,170.919 251.925,171.270 250.529 C 171.432 249.881,171.751 249.630,172.407 249.630 C 173.064 249.630,173.382 249.881,173.545 250.529 M266.663 251.838 C 267.537 255.085,265.512 257.760,263.910 255.473 C 262.591 253.590,263.394 250.370,265.184 250.370 C 266.133 250.370,266.317 250.552,266.663 251.838 M279.670 251.389 C 280.128 252.575,279.895 254.975,279.247 255.755 C 278.153 257.073,276.714 256.085,276.417 253.811 C 276.134 251.650,276.779 250.370,278.148 250.370 C 279.038 250.370,279.361 250.586,279.670 251.389 M175.010 259.646 C 175.650 260.681,172.886 261.821,170.928 261.330 C 170.046 261.109,169.665 260.088,170.247 259.506 C 170.648 259.105,174.750 259.225,175.010 259.646 " stroke="none" fill="#f9f9f9" fill-rule="evenodd"></path><path id="path1" d="M182.593 29.506 C 167.506 31.002,162.088 31.890,151.296 34.636 C 48.574 60.768,-5.477 174.235,38.576 271.262 C 69.896 340.244,146.411 381.398,220.370 369.040 C 317.754 352.769,380.687 261.990,361.436 165.557 C 347.326 94.879,287.917 39.705,216.111 30.593 C 206.908 29.425,189.200 28.851,182.593 29.506 M158.064 120.370 C 159.042 122.217,157.956 128.603,154.949 138.681 C 153.679 142.935,153.655 143.123,154.315 143.609 C 154.897 144.038,155.052 144.033,155.346 143.574 C 155.647 143.104,155.801 143.107,156.551 143.598 C 157.250 144.056,157.517 144.074,157.976 143.693 C 158.404 143.338,158.758 143.324,159.442 143.635 C 160.009 143.893,160.426 143.914,160.564 143.690 C 161.119 142.792,162.307 143.314,162.072 144.352 C 161.866 145.261,161.888 145.291,162.272 144.630 C 162.508 144.222,162.719 143.862,162.740 143.829 C 162.761 143.797,163.403 143.653,164.167 143.510 L 165.556 143.251 165.562 144.866 L 165.568 146.481 166.400 145.012 L 167.232 143.542 170.653 143.487 C 173.463 143.441,174.074 143.529,174.074 143.983 C 174.074 144.449,174.167 144.458,174.672 144.039 C 175.389 143.444,177.210 145.225,176.940 146.258 C 176.801 146.790,177.789 146.860,186.448 146.933 C 196.059 147.014,196.104 147.011,194.826 146.326 C 193.749 145.749,193.478 145.720,193.159 146.148 C 192.685 146.783,190.028 146.430,189.746 145.694 C 189.620 145.365,189.350 145.304,188.944 145.512 C 188.608 145.685,187.053 145.918,185.489 146.031 L 182.644 146.235 182.248 145.099 C 181.653 143.392,181.757 143.205,182.830 144.049 C 183.632 144.680,183.910 144.735,184.372 144.354 C 184.817 143.987,184.968 143.985,185.089 144.346 C 185.207 144.697,185.491 144.676,186.307 144.254 C 187.681 143.543,189.251 143.554,190.288 144.280 C 191.033 144.802,191.111 144.802,191.111 144.280 C 191.111 143.592,191.720 143.510,191.958 144.167 C 192.091 144.533,192.297 144.528,192.949 144.142 C 193.662 143.720,193.838 143.745,194.268 144.328 C 194.736 144.962,194.783 144.948,195.105 144.087 C 195.441 143.187,195.452 143.193,195.889 144.517 C 196.133 145.256,196.574 145.953,196.870 146.067 C 197.165 146.180,197.407 146.503,197.407 146.784 C 197.407 147.357,220.859 147.484,221.759 146.916 C 222.014 146.755,222.222 146.758,222.222 146.923 C 222.222 147.087,223.097 147.191,224.166 147.153 C 233.038 146.838,235.129 146.696,236.019 146.346 C 236.653 146.096,237.037 146.080,237.037 146.305 C 237.037 146.845,238.619 146.742,240.148 146.103 C 241.348 145.601,241.522 145.600,241.712 146.096 C 241.875 146.522,242.094 146.563,242.637 146.272 C 243.029 146.063,243.514 145.994,243.717 146.119 C 243.920 146.244,244.999 146.142,246.115 145.893 C 247.920 145.489,248.224 145.510,248.856 146.081 C 249.479 146.645,250.210 146.705,254.796 146.566 C 257.911 146.471,260.113 146.550,260.244 146.761 C 260.371 146.967,260.588 146.914,260.761 146.635 C 261.001 146.245,261.252 146.242,262.075 146.617 C 262.952 147.016,263.224 146.983,264.046 146.376 C 265.134 145.573,268.389 145.090,269.327 145.592 C 269.710 145.797,270.040 145.791,270.172 145.577 C 270.291 145.384,272.406 145.226,274.873 145.226 C 277.339 145.226,280.249 145.115,281.340 144.978 C 284.184 144.623,285.754 145.032,287.460 146.573 C 288.748 147.737,289.046 147.858,289.668 147.469 C 290.211 147.130,290.580 147.123,291.173 147.440 C 291.667 147.705,292.727 147.770,294.035 147.615 C 301.290 146.757,304.815 147.246,304.815 149.109 C 304.815 150.030,311.315 150.174,312.897 149.289 C 313.220 149.108,313.916 149.131,314.520 149.341 C 315.102 149.544,315.882 149.631,316.252 149.534 C 316.623 149.437,317.326 149.665,317.815 150.041 C 318.304 150.417,318.969 150.728,319.292 150.733 C 319.616 150.737,320.498 151.407,321.252 152.222 C 322.256 153.308,322.915 153.704,323.719 153.704 C 324.322 153.704,324.815 153.866,324.815 154.065 C 324.815 154.299,325.147 154.300,325.762 154.066 C 327.567 153.380,330.040 155.259,329.188 156.671 C 328.605 157.637,325.322 157.490,324.571 156.464 C 324.219 155.982,324.012 155.958,323.415 156.331 C 322.825 156.699,322.394 156.668,321.133 156.163 C 319.886 155.664,319.292 155.618,318.137 155.929 C 317.155 156.193,315.966 156.200,314.404 155.948 C 313.144 155.745,311.995 155.652,311.850 155.742 C 311.705 155.831,311.063 155.754,310.423 155.571 C 309.783 155.387,309.259 155.357,309.259 155.505 C 309.259 155.942,305.066 155.761,304.223 155.287 C 303.674 154.977,303.332 154.965,303.052 155.244 C 302.835 155.461,302.473 155.525,302.247 155.386 C 302.021 155.246,300.340 155.104,298.511 155.071 C 296.682 155.037,295.185 154.860,295.185 154.677 C 295.185 154.494,294.477 154.432,293.611 154.541 C 292.745 154.649,289.829 154.630,287.129 154.498 C 284.430 154.367,282.222 154.366,282.222 154.497 C 282.222 154.628,280.719 154.712,278.883 154.683 C 276.259 154.641,275.668 154.538,276.127 154.202 C 276.448 153.967,276.553 153.677,276.360 153.558 C 276.168 153.439,275.813 153.579,275.572 153.869 C 275.119 154.414,269.456 154.431,268.084 153.891 C 267.744 153.756,267.130 153.826,266.720 154.046 C 265.730 154.576,265.556 154.550,265.556 153.876 C 265.556 153.435,265.400 153.391,264.864 153.678 C 264.483 153.881,264.070 153.947,263.947 153.823 C 263.823 153.699,263.476 153.802,263.175 154.052 C 262.603 154.526,261.111 154.266,261.111 153.692 C 261.111 153.509,259.653 153.421,257.870 153.496 C 255.074 153.613,254.524 153.534,253.859 152.921 C 253.099 152.220,253.079 152.221,252.413 152.957 C 251.630 153.822,251.111 153.919,251.111 153.201 C 251.111 152.903,250.698 152.695,250.093 152.688 C 249.532 152.683,247.870 152.463,246.399 152.201 C 244.401 151.844,243.496 151.828,242.819 152.136 C 242.122 152.454,241.872 152.440,241.732 152.074 C 241.618 151.776,241.128 151.662,240.416 151.766 C 239.793 151.858,238.744 151.745,238.086 151.515 C 237.098 151.171,236.834 151.196,236.574 151.660 C 236.401 151.969,236.057 152.222,235.810 152.222 C 235.563 152.222,235.196 152.597,234.995 153.056 C 234.555 154.059,231.742 154.394,229.617 153.697 C 228.897 153.461,226.897 153.209,225.173 153.138 C 223.448 153.067,221.370 152.935,220.556 152.846 C 219.741 152.756,217.083 152.568,214.648 152.429 C 212.214 152.289,210.082 152.088,209.910 151.981 C 209.738 151.875,209.354 151.990,209.058 152.236 C 208.635 152.587,208.396 152.582,207.952 152.213 C 207.517 151.852,207.171 151.841,206.465 152.162 C 205.739 152.493,205.231 152.457,204.069 151.992 C 203.165 151.630,202.343 151.518,201.945 151.703 C 201.166 152.065,181.522 152.145,181.389 151.787 C 181.338 151.649,179.970 151.687,178.349 151.870 C 176.729 152.053,175.312 152.070,175.201 151.908 C 174.786 151.299,173.704 151.126,173.704 151.669 C 173.704 152.062,173.418 152.147,172.629 151.989 C 172.038 151.871,171.247 151.947,170.870 152.159 C 170.334 152.460,170.001 152.371,169.338 151.749 L 168.490 150.955 168.276 151.774 C 168.043 152.663,167.599 152.831,167.198 152.183 C 167.014 151.886,166.872 151.890,166.681 152.198 C 166.496 152.499,165.975 152.524,164.911 152.285 C 163.620 151.995,163.296 152.054,162.658 152.691 C 162.143 153.207,161.705 153.347,161.235 153.145 C 160.861 152.984,160.181 152.890,159.722 152.934 C 158.657 153.039,158.632 152.376,159.691 152.099 C 161.044 151.745,159.800 150.626,158.354 150.898 C 157.729 151.015,156.679 150.957,156.021 150.768 C 155.313 150.565,154.741 150.561,154.619 150.759 C 154.505 150.942,153.703 150.995,152.836 150.876 C 151.305 150.667,151.249 150.696,150.864 151.904 C 150.646 152.588,148.045 160.648,145.085 169.815 C 142.125 178.981,138.443 190.648,136.902 195.741 C 124.866 235.522,119.827 251.625,114.305 267.963 C 108.913 283.918,107.775 286.618,107.780 283.448 C 107.786 279.815,116.656 247.196,128.761 206.296 C 130.901 199.065,133.734 189.231,135.056 184.444 C 140.122 166.094,144.074 151.524,144.074 151.193 C 144.074 150.692,138.408 150.321,138.110 150.803 C 137.960 151.044,137.400 151.082,136.620 150.903 C 135.083 150.550,134.089 150.554,133.236 150.917 C 132.866 151.074,132.355 151.005,132.056 150.756 C 131.668 150.434,131.329 150.426,130.772 150.724 C 130.356 150.947,129.595 151.024,129.082 150.895 C 128.463 150.739,128.148 150.814,128.148 151.116 C 128.148 151.459,127.999 151.449,127.546 151.073 C 126.898 150.535,125.492 150.566,123.168 151.170 C 121.945 151.487,121.633 151.449,121.259 150.938 C 120.973 150.546,120.725 150.467,120.569 150.719 C 120.430 150.943,119.029 151.111,117.291 151.111 C 115.621 151.111,113.679 151.276,112.975 151.478 C 112.131 151.720,111.572 151.720,111.330 151.478 C 110.888 151.036,109.377 150.991,109.117 151.412 C 108.961 151.665,106.497 151.795,98.704 151.962 C 98.093 151.975,96.759 151.947,95.741 151.900 C 94.722 151.852,92.961 151.913,91.828 152.035 C 90.694 152.157,89.069 152.100,88.217 151.908 C 87.319 151.707,86.667 151.700,86.667 151.891 C 86.667 152.073,86.417 152.222,86.111 152.222 C 85.806 152.222,85.556 151.953,85.556 151.624 C 85.556 151.081,85.468 151.083,84.600 151.652 C 84.039 152.020,83.388 152.169,83.026 152.014 C 82.686 151.868,82.118 151.717,81.765 151.678 C 81.411 151.638,80.807 151.321,80.423 150.973 C 79.762 150.375,79.714 150.379,79.541 151.039 C 79.399 151.583,79.107 151.701,78.226 151.572 C 77.410 151.452,76.918 151.613,76.460 152.147 C 75.835 152.877,75.794 152.878,73.861 152.213 C 72.398 151.709,71.944 151.660,72.082 152.021 C 72.230 152.406,71.903 152.437,70.486 152.171 C 69.506 151.987,68.255 151.935,67.707 152.054 C 67.159 152.174,66.347 152.077,65.903 151.840 C 65.277 151.504,65.158 151.508,65.373 151.855 C 65.696 152.378,62.701 152.004,61.991 151.433 C 61.763 151.249,61.298 151.205,60.959 151.335 C 60.603 151.471,60.038 151.296,59.623 150.920 C 59.056 150.406,58.790 150.361,58.373 150.708 C 57.724 151.246,57.504 150.922,57.192 148.966 C 57.004 147.794,56.769 147.422,56.160 147.335 C 55.562 147.250,55.341 146.918,55.251 145.972 C 55.135 144.760,55.164 144.730,56.177 145.021 C 56.752 145.186,57.639 145.307,58.148 145.291 C 58.657 145.275,62.851 145.180,67.467 145.080 C 72.083 144.981,76.000 144.815,76.171 144.711 C 76.342 144.607,77.481 144.680,78.702 144.873 C 79.923 145.066,81.205 145.150,81.551 145.060 C 81.896 144.969,82.960 145.062,83.913 145.265 C 85.189 145.537,85.719 145.520,85.917 145.200 C 86.122 144.869,86.912 144.864,89.220 145.180 C 90.889 145.408,92.558 145.499,92.930 145.381 C 93.302 145.263,94.075 145.345,94.649 145.563 C 95.494 145.884,95.754 145.850,96.014 145.385 C 96.257 144.951,96.507 144.902,97.032 145.183 C 97.416 145.388,100.115 145.561,103.031 145.567 C 107.106 145.576,108.500 145.705,109.052 146.123 C 109.616 146.549,109.833 146.567,110.057 146.204 C 110.372 145.693,113.594 145.648,117.077 146.106 C 118.435 146.285,119.427 146.232,119.947 145.954 C 120.519 145.648,120.741 145.644,120.741 145.940 C 120.741 146.199,121.456 146.317,122.685 146.260 C 123.755 146.211,124.963 146.344,125.370 146.557 C 125.792 146.777,126.431 146.816,126.852 146.646 C 127.800 146.265,132.751 146.208,133.117 146.574 C 133.427 146.885,143.436 147.117,144.693 146.843 C 145.230 146.725,145.591 146.269,145.783 145.463 C 145.940 144.801,146.089 144.176,146.114 144.074 C 147.005 140.367,151.526 126.893,152.812 124.109 C 154.917 119.552,156.888 118.149,158.064 120.370 M154.347 127.037 C 153.508 128.890,149.664 140.374,149.140 142.593 C 148.945 143.417,149.039 143.519,149.991 143.519 C 151.053 143.519,151.071 143.481,152.589 138.030 C 155.477 127.663,156.249 122.834,154.347 127.037 M178.725 144.181 C 178.955 144.781,180.370 144.919,180.370 144.342 C 180.370 144.082,180.592 144.137,180.940 144.485 C 181.858 145.403,181.257 146.229,179.717 146.166 C 178.079 146.099,176.171 143.704,177.755 143.704 C 178.188 143.704,178.624 143.919,178.725 144.181 M149.830 144.798 C 149.468 145.198,148.992 145.491,148.774 145.448 C 148.556 145.405,148.314 145.662,148.236 146.019 C 147.955 147.301,149.873 146.824,150.336 145.495 C 150.839 144.053,150.690 143.848,149.830 144.798 M170.502 144.588 C 168.117 145.913,168.025 146.471,170.185 146.517 C 171.102 146.537,171.852 146.412,171.852 146.239 C 171.852 146.067,171.666 145.926,171.438 145.926 C 171.197 145.926,171.098 145.540,171.202 145.000 C 171.299 144.491,171.360 144.090,171.338 144.110 C 171.315 144.130,170.939 144.345,170.502 144.588 M199.630 144.809 C 200.139 144.943,200.556 145.291,200.556 145.582 C 200.556 146.178,198.859 146.100,198.477 145.486 C 198.353 145.287,198.133 145.429,197.988 145.802 C 197.691 146.568,196.667 145.598,196.667 144.552 C 196.667 144.063,196.871 144.081,199.630 144.809 M155.616 145.298 C 155.370 145.593,155.354 145.966,155.571 146.309 C 155.858 146.763,155.916 146.746,155.920 146.204 C 155.927 145.414,156.609 145.345,156.900 146.104 C 157.062 146.524,157.280 146.563,157.829 146.269 C 158.224 146.057,158.833 145.933,159.181 145.992 C 159.530 146.051,159.853 145.939,159.900 145.745 C 159.947 145.550,159.417 145.439,158.721 145.499 C 158.026 145.559,157.130 145.433,156.730 145.219 C 156.198 144.934,155.900 144.955,155.616 145.298 M174.444 146.481 C 174.069 146.934,174.088 147.037,174.545 147.037 C 174.853 147.037,175.202 146.787,175.319 146.481 C 175.436 146.176,175.391 145.926,175.219 145.926 C 175.047 145.926,174.698 146.176,174.444 146.481 M321.044 149.561 L 321.161 150.360 322.685 149.582 L 324.210 148.805 325.231 150.050 L 326.252 151.296 324.885 151.496 C 324.134 151.606,323.310 151.544,323.056 151.358 C 322.768 151.148,322.404 151.177,322.093 151.435 C 321.712 151.751,321.435 151.674,320.925 151.110 C 320.557 150.703,319.836 150.370,319.322 150.370 L 318.389 150.370 319.266 149.437 C 320.270 148.368,320.874 148.410,321.044 149.561 M147.021 151.019 C 147.012 151.171,146.868 152.005,146.700 152.870 C 146.418 154.328,146.709 155.047,147.149 153.981 C 147.254 153.727,147.608 152.894,147.934 152.130 C 148.508 150.788,148.503 150.741,147.783 150.741 C 147.373 150.741,147.030 150.866,147.021 151.019 M332.368 152.438 C 332.713 153.337,332.656 153.403,331.759 153.127 C 330.607 152.773,330.492 152.606,331.122 152.208 C 331.885 151.725,332.110 151.766,332.368 152.438 M217.239 156.514 C 217.921 156.838,219.029 157.685,219.702 158.397 C 220.375 159.110,221.536 160.275,222.282 160.986 C 225.260 163.828,225.707 166.720,224.003 172.134 C 223.570 173.506,223.244 175.059,223.276 175.584 C 223.309 176.110,222.837 178.193,222.227 180.214 C 221.258 183.428,221.147 184.242,221.349 186.705 C 221.556 189.237,221.458 189.882,220.384 193.107 C 219.352 196.204,219.224 196.992,219.444 198.886 C 219.651 200.672,219.543 201.511,218.860 203.410 C 218.372 204.767,217.993 206.746,217.953 208.148 C 217.915 209.472,217.753 211.431,217.594 212.500 C 217.435 213.569,217.397 214.444,217.511 214.444 C 219.638 214.444,222.593 209.860,222.593 206.561 C 222.593 199.828,226.139 194.194,232.156 191.367 C 235.154 189.958,240.869 189.518,243.519 190.492 L 245.000 191.036 242.208 190.841 C 237.740 190.529,233.506 191.828,230.387 194.468 C 228.500 196.065,229.389 196.707,231.325 195.145 C 237.178 190.425,245.989 190.862,251.261 196.134 C 253.011 197.884,255.184 201.718,255.185 203.056 C 255.186 204.733,258.064 200.200,260.002 195.470 L 260.871 193.347 259.155 190.840 C 256.861 187.488,256.553 186.563,256.824 183.836 C 257.643 175.584,263.043 169.959,267.790 172.414 C 271.043 174.096,270.647 179.101,266.563 187.908 L 265.043 191.186 265.947 191.869 C 266.837 192.542,266.879 192.537,268.519 191.567 C 275.167 187.633,275.792 187.510,278.437 189.600 C 282.370 192.709,282.586 194.111,279.943 199.359 C 274.327 210.508,273.013 216.198,274.444 223.173 C 276.144 231.459,286.104 221.949,291.251 207.127 C 293.275 201.295,293.841 200.601,294.265 203.429 C 294.775 206.828,286.794 223.191,282.862 226.811 C 274.506 234.502,261.738 226.308,263.751 214.546 C 263.917 213.573,264.312 211.148,264.629 209.156 C 265.203 205.541,265.953 203.198,267.477 200.259 C 267.921 199.404,268.385 197.950,268.509 197.030 L 268.734 195.355 267.237 195.341 C 266.414 195.333,265.206 195.192,264.552 195.027 C 263.425 194.744,263.330 194.803,262.734 196.160 C 260.573 201.081,256.759 207.407,255.955 207.407 C 255.788 207.407,255.543 208.220,255.411 209.213 C 254.833 213.575,250.573 218.884,245.864 221.112 C 242.766 222.578,241.820 222.521,244.562 221.034 C 248.844 218.711,251.535 215.166,252.728 210.278 C 253.149 208.557,252.028 209.063,251.498 210.833 C 247.768 223.306,231.461 225.782,225.000 214.857 C 223.662 212.594,223.803 212.605,222.301 214.647 C 221.098 216.283,217.686 218.244,215.138 218.765 C 212.474 219.309,209.112 216.290,207.896 212.263 C 207.112 209.664,206.785 209.271,206.352 210.403 C 205.232 213.326,199.608 219.407,196.687 220.853 C 192.105 223.122,187.639 220.886,186.326 215.666 C 186.080 214.689,185.764 213.432,185.625 212.874 C 185.387 211.926,185.211 212.119,182.963 215.779 C 176.081 226.983,167.693 227.402,166.144 216.619 L 165.699 213.519 164.327 216.124 C 160.225 223.914,154.320 225.736,149.133 220.813 C 139.641 211.807,159.304 184.245,170.599 190.724 C 175.380 193.466,176.264 196.129,172.516 196.501 C 165.593 197.190,160.503 202.791,156.643 213.967 C 155.705 216.682,156.312 219.383,157.901 219.565 C 160.057 219.811,161.286 217.852,169.220 201.534 C 170.327 199.257,171.007 198.883,174.006 198.902 C 178.518 198.930,179.574 200.577,178.098 205.284 C 177.514 207.145,177.035 209.175,177.032 209.797 C 177.027 210.707,175.062 217.134,173.883 220.093 C 173.685 220.589,173.811 220.741,174.423 220.741 C 177.048 220.741,179.569 217.702,185.026 207.963 C 185.482 207.148,186.225 204.986,186.676 203.158 C 187.128 201.330,188.227 197.968,189.119 195.686 C 190.011 193.405,190.741 191.184,190.741 190.752 C 190.741 189.530,192.358 188.148,193.790 188.148 C 198.972 188.148,200.821 196.575,197.691 205.930 C 196.975 208.071,196.174 210.821,195.912 212.041 C 195.650 213.261,195.205 214.530,194.924 214.861 C 194.116 215.814,193.882 217.995,194.560 218.256 C 196.752 219.096,207.017 206.469,207.053 202.888 C 207.062 202.013,207.226 200.546,207.417 199.630 C 207.608 198.713,207.935 196.213,208.145 194.074 C 208.756 187.840,209.619 181.975,210.579 177.533 C 211.071 175.259,211.643 171.425,211.852 169.014 C 212.825 157.744,214.015 154.984,217.239 156.514 M204.443 167.962 C 207.660 169.592,207.763 170.779,205.071 175.179 C 202.307 179.695,198.960 180.067,196.791 176.099 C 193.515 170.106,198.408 164.904,204.443 167.962 M264.667 180.103 C 262.473 182.980,261.788 185.759,262.731 187.963 L 263.206 189.074 264.343 186.111 C 266.813 179.681,266.951 177.108,264.667 180.103 M235.355 197.914 C 226.830 201.883,229.122 214.605,238.516 215.457 C 243.992 215.953,248.593 211.771,248.593 206.296 C 248.593 199.394,241.636 194.989,235.355 197.914 M225.569 199.605 C 225.014 200.641,225.094 201.284,225.862 201.980 C 227.457 203.422,229.835 201.743,228.949 199.800 C 228.411 198.619,226.166 198.489,225.569 199.605 M240.930 202.015 C 244.091 203.336,244.572 208.248,241.722 210.115 C 237.002 213.207,231.809 207.174,235.639 203.048 C 237.138 201.435,238.775 201.115,240.930 202.015 M190.667 243.407 C 191.290 244.031,191.220 245.394,190.529 246.085 C 189.235 247.379,186.667 246.444,186.667 244.677 C 186.667 243.497,187.359 242.963,188.889 242.963 C 189.622 242.963,190.422 243.163,190.667 243.407 M184.444 251.111 L 184.444 258.889 182.222 258.889 L 180.000 258.889 180.000 251.111 L 180.000 243.333 182.222 243.333 L 184.444 243.333 184.444 251.111 M208.519 245.754 C 208.519 248.032,208.561 248.152,209.235 247.791 C 210.586 247.067,213.201 247.329,214.331 248.300 C 215.357 249.182,215.372 249.254,215.492 254.041 L 215.614 258.889 213.548 258.889 L 211.481 258.889 211.481 255.531 C 211.481 251.908,211.120 250.741,210.000 250.741 C 208.880 250.741,208.519 251.908,208.519 255.531 L 208.519 258.889 206.296 258.889 L 204.074 258.889 204.074 251.111 L 204.074 243.333 206.296 243.333 L 208.519 243.333 208.519 245.754 M250.370 245.754 C 250.370 248.032,250.412 248.152,251.087 247.791 C 252.438 247.067,255.052 247.329,256.183 248.300 C 257.209 249.182,257.224 249.254,257.344 254.041 L 257.466 258.889 255.400 258.889 L 253.333 258.889 253.333 255.531 C 253.333 251.908,252.972 250.741,251.852 250.741 C 250.731 250.741,250.370 251.908,250.370 255.531 L 250.370 258.889 248.148 258.889 L 245.926 258.889 245.926 251.111 L 245.926 243.333 248.148 243.333 L 250.370 243.333 250.370 245.754 M290.000 251.111 L 290.000 258.889 287.963 258.889 L 285.926 258.889 285.926 251.111 L 285.926 243.333 287.963 243.333 L 290.000 243.333 290.000 251.111 M151.852 245.926 L 151.852 247.778 149.630 247.778 C 147.506 247.778,147.407 247.819,147.407 248.704 C 147.407 249.579,147.519 249.630,149.444 249.630 L 151.481 249.630 151.481 251.296 L 151.481 252.963 149.444 252.963 L 147.407 252.963 147.407 254.259 L 147.407 255.556 149.630 255.556 L 151.852 255.556 151.852 257.222 L 151.852 258.889 147.407 258.889 L 142.963 258.889 142.963 251.481 L 142.963 244.074 147.407 244.074 L 151.852 244.074 151.852 245.926 M231.901 244.503 C 233.534 244.992,233.533 244.988,232.757 246.844 C 232.273 248.003,232.051 248.184,231.368 247.977 C 227.247 246.726,225.794 248.009,229.352 249.758 C 236.993 253.512,232.724 261.326,224.395 258.830 C 222.967 258.402,222.963 258.396,222.963 256.442 L 222.963 254.482 224.293 255.038 C 225.987 255.746,229.074 255.602,229.074 254.815 C 229.074 254.509,228.107 253.745,226.924 253.117 C 219.393 249.118,223.512 241.990,231.901 244.503 M157.407 247.963 C 157.407 248.654,157.757 248.651,158.682 247.951 C 159.991 246.961,162.858 247.246,164.103 248.490 C 165.184 249.572,165.185 249.576,165.185 254.231 L 165.185 258.889 163.148 258.889 L 161.111 258.889 161.111 255.401 C 161.111 251.284,160.954 250.741,159.766 250.741 C 158.537 250.741,158.148 251.947,158.148 255.765 L 158.148 258.889 156.111 258.889 L 154.074 258.889 154.074 253.148 L 154.074 247.407 155.741 247.407 C 156.975 247.407,157.407 247.551,157.407 247.963 M178.519 248.553 C 178.519 249.356,178.314 249.753,177.835 249.878 C 177.338 250.008,177.198 250.304,177.323 250.957 C 177.771 253.303,175.849 255.126,172.804 255.241 C 170.559 255.326,170.618 255.925,172.870 255.928 C 180.395 255.937,180.684 262.802,173.204 263.873 C 168.075 264.608,164.223 260.738,167.870 258.514 C 168.532 258.111,168.869 257.780,168.618 257.779 C 167.799 257.777,167.626 255.966,168.367 255.148 C 168.809 254.660,168.908 254.310,168.652 254.144 C 167.442 253.358,167.065 250.850,167.924 249.300 C 168.780 247.757,169.882 247.435,174.352 247.421 L 178.519 247.407 178.519 248.553 M191.111 253.148 L 191.111 258.889 188.889 258.889 L 186.667 258.889 186.667 253.148 L 186.667 247.407 188.889 247.407 L 191.111 247.407 191.111 253.148 M201.056 247.814 C 201.697 248.038,202.222 248.267,202.222 248.324 C 202.222 249.030,200.994 251.082,200.686 250.892 C 199.925 250.421,197.774 250.077,197.578 250.395 C 197.470 250.569,198.095 251.071,198.968 251.509 C 204.764 254.418,202.878 259.757,196.267 259.158 C 193.492 258.906,193.333 258.781,193.333 256.849 L 193.333 255.224 194.407 255.598 C 194.997 255.804,196.206 255.920,197.092 255.856 L 198.704 255.741 196.403 254.539 C 190.109 251.251,194.152 245.407,201.056 247.814 M244.087 248.013 C 245.214 249.140,243.507 251.121,241.632 250.864 C 239.576 250.582,238.889 251.188,238.889 253.282 C 238.889 255.658,240.310 256.425,242.790 255.389 L 244.074 254.853 244.074 256.455 C 244.074 260.158,237.237 260.276,235.339 256.605 C 233.910 253.843,234.820 249.572,237.148 248.112 C 238.463 247.287,243.293 247.219,244.087 248.013 M268.448 248.158 C 271.890 250.256,271.469 256.752,267.770 258.611 C 262.917 261.049,258.057 256.595,259.621 251.142 C 260.597 247.740,265.206 246.181,268.448 248.158 M281.371 248.133 C 287.396 251.807,282.320 261.520,275.821 258.751 C 269.982 256.263,271.799 247.410,278.148 247.410 C 279.517 247.410,280.574 247.647,281.371 248.133 M171.638 250.127 C 171.198 251.274,171.634 252.778,172.407 252.778 C 173.429 252.778,173.515 249.896,172.499 249.700 C 172.142 249.631,171.754 249.823,171.638 250.127 M264.148 250.815 C 263.904 251.059,263.704 252.109,263.704 253.148 C 263.704 255.796,265.317 257.016,266.325 255.131 C 267.529 252.882,265.702 249.261,264.148 250.815 M277.050 251.087 C 275.735 253.543,277.497 257.170,279.185 255.481 C 280.296 254.371,279.484 250.370,278.148 250.370 C 277.755 250.370,277.261 250.693,277.050 251.087 M170.791 259.640 C 169.442 260.206,170.437 261.111,172.407 261.111 C 173.802 261.111,175.255 260.316,174.761 259.823 C 174.373 259.435,171.585 259.307,170.791 259.640 " stroke="none" fill="#1c2c4c" fill-rule="evenodd"></path><path id="path2" d="M314.630 78.889 C 315.425 79.704,316.160 80.370,316.261 80.370 C 316.363 80.370,315.796 79.704,315.000 78.889 C 314.204 78.074,313.470 77.407,313.368 77.407 C 313.266 77.407,313.834 78.074,314.630 78.889 M100.270 145.823 C 100.927 145.905,102.094 145.906,102.862 145.826 C 103.631 145.746,103.093 145.679,101.667 145.677 C 100.241 145.675,99.612 145.741,100.270 145.823 M121.950 146.562 C 122.513 146.647,123.346 146.645,123.801 146.557 C 124.257 146.469,123.796 146.399,122.778 146.402 C 121.759 146.405,121.387 146.477,121.950 146.562 M192.877 147.305 C 193.543 147.388,194.543 147.386,195.099 147.302 C 195.656 147.217,195.111 147.150,193.889 147.152 C 192.667 147.154,192.211 147.223,192.877 147.305 M240.370 190.370 L 239.074 190.643 240.463 190.692 C 241.227 190.719,241.852 190.574,241.852 190.370 C 241.852 190.167,241.810 190.022,241.759 190.049 C 241.708 190.076,241.083 190.220,240.370 190.370 M143.119 251.667 C 143.118 255.741,143.172 257.458,143.239 255.483 C 143.305 253.507,143.306 250.174,143.239 248.075 C 143.173 245.976,143.119 247.593,143.119 251.667 " stroke="none" fill="#8892a4" fill-rule="evenodd"></path><path id="path3" d="M196.578 29.151 C 197.039 29.239,197.706 29.236,198.060 29.143 C 198.414 29.051,198.037 28.978,197.222 28.982 C 196.407 28.986,196.118 29.062,196.578 29.151 M73.871 78.241 L 72.407 79.815 73.981 78.351 C 74.847 77.546,75.556 76.837,75.556 76.777 C 75.556 76.496,75.233 76.777,73.871 78.241 M180.157 251.111 C 180.157 255.491,180.211 257.282,180.276 255.093 C 180.342 252.903,180.342 249.319,180.276 247.130 C 180.211 244.940,180.157 246.731,180.157 251.111 M208.259 245.185 C 208.259 246.306,208.329 246.764,208.413 246.204 C 208.498 245.644,208.498 244.727,208.413 244.167 C 208.329 243.606,208.259 244.065,208.259 245.185 M250.111 245.185 C 250.111 246.306,250.180 246.764,250.265 246.204 C 250.350 245.644,250.350 244.727,250.265 244.167 C 250.180 243.606,250.111 244.065,250.111 245.185 M145.477 244.349 C 146.759 244.421,148.759 244.421,149.922 244.347 C 151.085 244.274,150.037 244.215,147.593 244.215 C 145.148 244.216,144.196 244.276,145.477 244.349 M208.273 256.296 C 208.273 257.824,208.338 258.449,208.418 257.685 C 208.498 256.921,208.498 255.671,208.418 254.907 C 208.338 254.144,208.273 254.769,208.273 256.296 M250.125 256.296 C 250.125 257.824,250.190 258.449,250.270 257.685 C 250.350 256.921,250.350 255.671,250.270 254.907 C 250.190 254.144,250.125 254.769,250.125 256.296 " stroke="none" fill="#6d7b8e" fill-rule="evenodd"></path><path id="path4" d="M59.907 145.447 C 60.366 145.535,61.116 145.535,61.574 145.447 C 62.032 145.358,61.657 145.286,60.741 145.286 C 59.824 145.286,59.449 145.358,59.907 145.447 M256.019 146.922 C 256.375 147.015,256.958 147.015,257.315 146.922 C 257.671 146.829,257.380 146.753,256.667 146.753 C 255.954 146.753,255.662 146.829,256.019 146.922 M173.426 199.144 C 173.782 199.237,174.366 199.237,174.722 199.144 C 175.079 199.051,174.787 198.975,174.074 198.975 C 173.361 198.975,173.069 199.051,173.426 199.144 M286.083 251.111 C 286.083 255.491,286.137 257.282,286.202 255.093 C 286.268 252.903,286.268 249.319,286.202 247.130 C 286.137 244.940,286.083 246.731,286.083 251.111 M155.097 247.669 C 155.558 247.758,156.224 247.755,156.578 247.662 C 156.932 247.569,156.556 247.497,155.741 247.501 C 154.926 247.505,154.636 247.581,155.097 247.669 M175.099 247.676 C 175.765 247.758,176.765 247.757,177.321 247.672 C 177.878 247.588,177.333 247.520,176.111 247.522 C 174.889 247.524,174.434 247.593,175.099 247.676 M187.870 247.673 C 188.431 247.758,189.347 247.758,189.907 247.673 C 190.468 247.588,190.009 247.518,188.889 247.518 C 187.769 247.518,187.310 247.588,187.870 247.673 M148.056 249.898 C 148.718 249.980,149.801 249.980,150.463 249.898 C 151.125 249.815,150.583 249.748,149.259 249.748 C 147.935 249.748,147.394 249.815,148.056 249.898 M215.325 254.815 C 215.325 257.157,215.385 258.116,215.459 256.944 C 215.532 255.773,215.532 253.856,215.459 252.685 C 215.385 251.514,215.325 252.472,215.325 254.815 M257.177 254.815 C 257.177 257.157,257.237 258.116,257.311 256.944 C 257.384 255.773,257.384 253.856,257.311 252.685 C 257.237 251.514,257.177 252.472,257.177 254.815 M161.246 255.370 C 161.247 257.407,161.310 258.193,161.385 257.117 C 161.460 256.041,161.459 254.374,161.383 253.414 C 161.307 252.453,161.245 253.333,161.246 255.370 M157.907 255.926 C 157.907 257.657,157.971 258.366,158.049 257.500 C 158.127 256.634,158.127 255.218,158.049 254.352 C 157.971 253.486,157.907 254.194,157.907 255.926 M148.047 255.823 C 148.705 255.905,149.871 255.906,150.640 255.826 C 151.408 255.746,150.870 255.679,149.444 255.677 C 148.019 255.675,147.390 255.741,148.047 255.823 M182.685 370.996 C 183.042 371.089,183.625 371.089,183.981 370.996 C 184.338 370.903,184.046 370.827,183.333 370.827 C 182.620 370.827,182.329 370.903,182.685 370.996 M191.759 371.372 C 192.218 371.461,192.968 371.461,193.426 371.372 C 193.884 371.284,193.509 371.212,192.593 371.212 C 191.676 371.212,191.301 371.284,191.759 371.372 " stroke="none" fill="#949cac" fill-rule="evenodd"></path><path id="path5" d="M191.769 29.161 C 192.640 29.239,193.974 29.238,194.732 29.158 C 195.491 29.079,194.778 29.015,193.148 29.016 C 191.519 29.017,190.898 29.082,191.769 29.161 M105.470 145.824 C 106.135 145.906,107.135 145.905,107.692 145.820 C 108.248 145.736,107.704 145.668,106.481 145.670 C 105.259 145.672,104.804 145.742,105.470 145.824 M117.500 146.552 C 117.856 146.645,118.440 146.645,118.796 146.552 C 119.153 146.458,118.861 146.382,118.148 146.382 C 117.435 146.382,117.144 146.458,117.500 146.552 M129.722 146.552 C 130.079 146.645,130.662 146.645,131.019 146.552 C 131.375 146.458,131.083 146.382,130.370 146.382 C 129.657 146.382,129.366 146.458,129.722 146.552 M179.722 146.922 C 180.079 147.015,180.662 147.015,181.019 146.922 C 181.375 146.829,181.083 146.753,180.370 146.753 C 179.657 146.753,179.366 146.829,179.722 146.922 M226.759 147.302 C 227.319 147.387,228.236 147.387,228.796 147.302 C 229.356 147.217,228.898 147.148,227.778 147.148 C 226.657 147.148,226.199 147.217,226.759 147.302 M273.056 154.329 C 273.412 154.423,273.995 154.423,274.352 154.329 C 274.708 154.236,274.417 154.160,273.704 154.160 C 272.991 154.160,272.699 154.236,273.056 154.329 M364.901 197.037 C 364.901 197.750,364.977 198.042,365.070 197.685 C 365.163 197.329,365.163 196.745,365.070 196.389 C 364.977 196.032,364.901 196.324,364.901 197.037 M364.901 203.333 C 364.901 204.046,364.977 204.338,365.070 203.981 C 365.163 203.625,365.163 203.042,365.070 202.685 C 364.977 202.329,364.901 202.620,364.901 203.333 M186.816 253.333 C 186.816 256.491,186.873 257.782,186.942 256.204 C 187.011 254.625,187.011 252.042,186.942 250.463 C 186.873 248.884,186.816 250.176,186.816 253.333 " stroke="none" fill="#54647c" fill-rule="evenodd"></path><path id="path6" d="" stroke="none" fill="#8c9ca8" fill-rule="evenodd"></path><path id="path7" d="M190.890 253.333 C 190.890 256.491,190.947 257.782,191.016 256.204 C 191.085 254.625,191.085 252.042,191.016 250.463 C 190.947 248.884,190.890 250.176,190.890 253.333 " stroke="none" fill="#4b5b74" fill-rule="evenodd"></path><path id="path8" d="M364.921 200.185 C 364.924 201.204,364.995 201.576,365.081 201.013 C 365.166 200.450,365.163 199.617,365.076 199.162 C 364.988 198.706,364.918 199.167,364.921 200.185 M283.125 226.389 L 282.037 227.593 283.241 226.505 C 283.903 225.906,284.444 225.365,284.444 225.301 C 284.444 225.015,284.139 225.267,283.125 226.389 M184.231 251.111 C 184.231 255.491,184.285 257.282,184.350 255.093 C 184.416 252.903,184.416 249.319,184.350 247.130 C 184.285 244.940,184.231 246.731,184.231 251.111 M204.231 251.111 C 204.231 255.491,204.285 257.282,204.350 255.093 C 204.416 252.903,204.416 249.319,204.350 247.130 C 204.285 244.940,204.231 246.731,204.231 251.111 M246.083 251.111 C 246.083 255.491,246.137 257.282,246.202 255.093 C 246.268 252.903,246.268 249.319,246.202 247.130 C 246.137 244.940,246.083 246.731,246.083 251.111 M147.179 247.941 C 147.067 248.235,147.052 248.777,147.148 249.145 C 147.263 249.591,147.336 249.480,147.364 248.814 C 147.406 247.853,147.499 247.808,149.722 247.682 L 152.037 247.550 149.711 247.479 C 147.977 247.426,147.332 247.543,147.179 247.941 M147.130 254.259 C 147.135 255.074,147.210 255.364,147.299 254.903 C 147.388 254.442,147.384 253.776,147.292 253.422 C 147.199 253.068,147.126 253.444,147.130 254.259 M173.245 256.188 C 173.706 256.276,174.372 256.273,174.727 256.180 C 175.081 256.088,174.704 256.015,173.889 256.019 C 173.074 256.023,172.784 256.099,173.245 256.188 M314.815 320.926 C 313.915 321.843,313.262 322.593,313.364 322.593 C 313.466 322.593,314.286 321.843,315.185 320.926 C 316.085 320.009,316.738 319.259,316.636 319.259 C 316.534 319.259,315.714 320.009,314.815 320.926 " stroke="none" fill="#40516b" fill-rule="evenodd"></path></g></svg>